<svg xmlns="http://www.w3.org/2000/svg"  viewBox="0 0 50 50" width="30px" height="30px"><path d="M 3 0 C 1.3 0 0 1.3 0 3 L 0 47 C 0 48.7 1.3 50 3 50 L 37 50 C 38.7 50 40 48.7 40 47 L 40 40.599609 L 38 42.599609 L 38 47 C 38 47.6 37.6 48 37 48 L 3 48 C 2.4 48 2 47.6 2 47 L 2 3 C 2 2.4 2.4 2 3 2 L 37 2 C 37.6 2 38 2.4 38 3 L 38 7.5 C 38.2 7.6 38.4 7.8003906 38.5 7.9003906 L 40 9.4003906 L 40 3 C 40 1.3 38.7 0 37 0 L 3 0 z M 34.990234 10.390625 A 1.0001 1.0001 0 0 0 34.292969 12.107422 L 46.185547 24 L 17 24 A 1.0001 1.0001 0 1 0 17 26 L 46.185547 26 L 33.693359 38.492188 A 1.0001 1.0001 0 1 0 35.107422 39.90625 L 50.013672 25 L 35.707031 10.693359 A 1.0001 1.0001 0 0 0 34.990234 10.390625 z"/></svg>